<svg width="421" height="325" viewBox="0 0 421 325" fill="none" xmlns="http://www.w3.org/2000/svg">
<g opacity="0.65">
<path d="M398.328 189.415C398.328 273.77 358.84 324.048 258.588 324.048C158.336 324.048 77.0657 255.664 77.0657 171.309C77.0657 86.9535 116.553 36.6758 216.805 36.6758C317.057 36.6758 479.108 -17.1773 398.328 189.415Z" fill="#177B8F" fill-opacity="0.09"/>
<path d="M389.971 194.521C389.971 262.98 312.442 318.477 216.805 318.477C121.169 318.477 12.999 247.195 12.999 178.737C12.999 110.278 251.624 266.945 186.165 54.7817C281.802 54.7817 389.971 126.063 389.971 194.521Z" fill="#82D9FF" fill-opacity="0.2"/>
<path d="M117.92 162.952C92.6646 143.639 86.9698 126.431 87.2793 120.241C92.4789 120.241 109.873 133.24 117.92 139.74C116.372 131.383 114.763 115.784 120.705 120.241C128.134 125.812 124.419 146.239 130.919 147.632C137.419 149.025 176.416 227.019 181.987 226.555C186.444 226.183 214.794 170.38 228.412 142.525C229.186 200.711 197.307 292.514 176.416 277.158C122.098 237.233 149.489 187.093 117.92 162.952Z" fill="#F7B87E"/>
<path d="M202.878 316.155L207.985 245.589L185.701 222.377C198.235 201.64 223.398 157.103 223.769 144.847C224.234 129.526 238.625 139.276 247.91 130.455C255.338 123.398 263.385 116.991 266.48 114.67C273.599 110.337 296.41 107.019 299.907 118.384C303.621 130.455 338.904 109.563 347.724 144.847C357.164 171.309 374.744 224.512 369.544 225.626C363.045 227.019 353.295 224.233 341.225 240.947C332.877 252.506 325.777 245.235 322.207 238.153L325.44 245.589L330.083 313.37C303.466 321.107 240.761 332.497 202.878 316.155Z" fill="#8BC0FF"/>
<path d="M202.878 316.155L207.985 245.589L185.701 222.377C198.235 201.64 223.398 157.103 223.769 144.847C224.234 129.526 238.625 139.276 247.91 130.455C255.338 123.398 263.385 116.991 266.48 114.67C273.599 110.337 296.41 107.019 299.907 118.384C303.621 130.455 338.904 109.563 347.724 144.847C357.164 171.309 374.744 224.512 369.544 225.626C363.045 227.019 353.295 224.233 341.225 240.947C332.877 252.506 325.777 245.235 322.207 238.153L325.44 245.589L330.083 313.37C303.466 321.107 240.761 332.497 202.878 316.155Z" fill="#0655B6"/>
<path d="M241.875 182.915C241.875 182.915 231.253 322.657 241.875 324.048C252.497 325.438 266.945 324.048 266.945 324.048C266.945 324.048 279.015 163.881 287.836 131.383C282.574 137.883 269.73 150.51 260.445 149.025C248.839 147.168 259.517 122.562 255.338 125.348C251.996 127.576 244.97 164.655 241.875 182.915Z" fill="#7695BC"/>
<path d="M240.482 200.557C240.482 200.557 252.708 140.823 260.446 116.527C256.732 116.527 246.518 129.526 241.875 136.026C240.947 168.678 240.482 200.557 240.482 200.557Z" fill="#043054"/>
<path d="M325.44 191.736C325.069 203.992 324.047 188.641 311.513 209.377V240.947C314.298 248.529 331.568 254.317 341.225 240.947C353.295 224.233 363.044 227.019 369.544 225.626C374.744 224.512 357.164 171.309 347.724 144.847C338.903 109.563 303.62 130.455 299.906 118.384C296.409 107.019 273.599 110.337 266.48 114.67C263.385 116.991 307.335 134.076 299.906 141.132C290.621 149.953 325.904 176.416 325.44 191.736Z" fill="#8BC0FF"/>
<path d="M325.44 191.736C325.069 203.992 324.047 188.641 311.513 209.377V240.947C314.298 248.529 331.568 254.317 341.225 240.947C353.295 224.233 363.044 227.019 369.544 225.626C374.744 224.512 357.164 171.309 347.724 144.847C338.903 109.563 303.62 130.455 299.906 118.384C296.409 107.019 273.599 110.337 266.48 114.67C263.385 116.991 307.335 134.076 299.906 141.132C290.621 149.953 325.904 176.416 325.44 191.736Z" fill="#0655B6"/>
<path d="M298.978 118.384C300.835 112.442 290.312 110.337 285.051 110.492C285.051 110.492 281.337 123.027 279.944 128.598C278.551 134.168 269.73 146.703 269.73 146.703C271.742 164.654 278.674 202.044 279.015 198.235C284.586 136.026 296.657 125.812 298.978 118.384Z" fill="#043054"/>
<path d="M259.052 149.953C249.263 146.498 256.267 125.218 259.052 118.718C239.554 123.361 230.51 111.589 228.653 108.803C226.796 106.018 225.403 72.7218 237.938 54.616C247.966 40.1313 273.686 53.8422 285.292 62.5082C286.839 71.1743 288.82 94.0773 284.363 116.361C278.792 144.217 266.945 152.739 259.052 149.953Z" fill="#F7B87E"/>
<rect x="253.119" y="180.13" width="66.5236" height="93.6339" rx="7" transform="rotate(32.1144 253.119 180.13)" fill="url(#paint0_linear_857_116)"/>
<path d="M259.052 118.848C274.569 116.188 285.005 108.111 285.914 105.396C285.961 104.93 285.978 104.792 285.978 105.048C285.978 105.152 285.957 105.268 285.914 105.396C285.433 110.123 281.847 148.6 261.582 151.285C250.792 152.715 252.553 135.097 259.052 118.848Z" fill="#D79F6D"/>
<path d="M234.08 213.556L236.401 203.342C238.258 210.027 252.65 216.032 259.613 218.198C256.518 213.246 252.185 204.085 259.613 207.056C267.041 210.027 269.208 219.436 269.363 223.769L325.44 257.195L327.858 232.126L366.294 223.769C377.127 252.089 382.733 300.556 349.678 308.727C316.623 316.898 275.862 265.707 259.613 239.09C251.876 238.161 235.937 235.468 234.08 232.126C232.223 228.783 233.306 218.353 234.08 213.556Z" fill="#F7B87E"/>
<path d="M250.314 77.0658V81.7083C247.993 83.7201 243.536 88.2078 244.279 90.0648C245.207 92.3861 246.136 92.3861 248.457 93.3146" stroke="#E5BCBA"/>
<ellipse cx="261.838" cy="78.4585" rx="2.78551" ry="4.17826" fill="#1A1945"/>
<ellipse cx="240.482" cy="75.673" rx="2.78551" ry="4.17826" fill="#1A1945"/>
<path d="M285.05 79.8513C282.822 77.2515 276.576 79.889 274.564 83.1388V65.4972C270.386 65.8067 258.29 66.3806 244.388 62.2474C227.211 57.1407 204.329 28.2527 229.068 20.4644C254.137 12.5721 246.245 32.0711 260.172 29.2856C274.1 26.5001 289.42 32.0711 296.848 39.0349C302.791 44.6059 296.848 53.4267 293.134 57.1407C294.527 56.3669 299.634 56.955 308.919 65.4972C318.204 74.0394 298.359 94.2431 285.979 105.849C279.479 102.135 275.691 102.474 282.729 93.3146C288.109 86.313 287.836 83.101 285.05 79.8513Z" fill="#0F0A0A"/>
<path d="M245.913 107.706C239.228 106.964 239.104 102.754 239.878 100.743L259.376 97.4928C257.674 101.207 252.598 108.449 245.913 107.706Z" fill="white" stroke="#E5BCBA"/>
<g filter="url(#filter0_d_857_116)">
<rect x="90.0647" y="57.5671" width="51.0677" height="51.0677" rx="8" fill="#0655B6"/>
</g>
<g filter="url(#filter1_d_857_116)">
<rect x="168.724" y="92.8503" width="51.0677" height="51.0677" rx="8" transform="rotate(31.4746 168.724 92.8503)" fill="#177B8F"/>
</g>
<circle cx="364.045" cy="7.5" r="7.5" fill="#E6FAFF"/>
<circle cx="364.045" cy="38.5" r="7.5" fill="#E6FAFF"/>
<circle cx="364.045" cy="69.5" r="7.5" fill="#E6FAFF"/>
<circle cx="364.045" cy="100.5" r="7.5" fill="#E6FAFF"/>
<circle cx="386.329" cy="7.5" r="7.5" fill="#E6FAFF"/>
<circle cx="386.329" cy="38.5" r="7.5" fill="#E6FAFF"/>
<circle cx="386.329" cy="69.5" r="7.5" fill="#E6FAFF"/>
<circle cx="386.329" cy="100.5" r="7.5" fill="#E6FAFF"/>
<circle cx="408.613" cy="7.5" r="7.5" fill="#E6FAFF"/>
<circle cx="408.613" cy="38.5" r="7.5" fill="#E6FAFF"/>
<circle cx="408.613" cy="69.5" r="7.5" fill="#E6FAFF"/>
<circle cx="408.613" cy="100.5" r="7.5" fill="#E6FAFF"/>
<circle cx="6.96377" cy="173.166" r="6.96377" fill="#E6FAFF"/>
<circle cx="29.248" cy="173.166" r="6.96377" fill="#E6FAFF"/>
<circle cx="51.5319" cy="173.166" r="6.96377" fill="#E6FAFF"/>
<circle cx="29.248" cy="199.164" r="6.96377" fill="#E6FAFF"/>
<circle cx="51.5319" cy="199.164" r="6.96377" fill="#E6FAFF"/>
<circle cx="51.5319" cy="225.162" r="6.96377" fill="#E6FAFF"/>
<rect x="112.349" y="70.5663" width="6.49952" height="25.0696" fill="white"/>
<rect x="128.134" y="79.8513" width="6.49952" height="25.0696" transform="rotate(90 128.134 79.8513)" fill="white"/>
<path d="M186.328 129.676L171.504 133.688L169.143 124.786L172.099 123.986L173.675 129.928L185.542 126.716L186.328 129.676ZM166.302 122.506C168.096 119.399 171.058 117.394 174.305 116.672L175.631 121.669L180.25 113.668L172.289 109.072L173.514 113.691C169.513 114.617 165.874 117.12 163.649 120.974C159.653 127.895 161.614 136.601 167.93 141.136L169.485 138.442C164.634 134.771 163.169 127.933 166.302 122.506ZM190.184 136.294C194.18 129.374 192.219 120.668 185.903 116.132L184.348 118.826C189.199 122.498 190.664 129.335 187.531 134.762C185.737 137.869 182.775 139.875 179.528 140.596L178.202 135.599L173.583 143.6L181.544 148.196L180.319 143.577C184.32 142.652 187.959 140.148 190.184 136.294Z" fill="white"/>
</g>
<defs>
<filter id="filter0_d_857_116" x="86.0647" y="57.5671" width="59.0676" height="59.0676" filterUnits="userSpaceOnUse" color-interpolation-filters="sRGB">
<feFlood flood-opacity="0" result="BackgroundImageFix"/>
<feColorMatrix in="SourceAlpha" type="matrix" values="0 0 0 0 0 0 0 0 0 0 0 0 0 0 0 0 0 0 127 0" result="hardAlpha"/>
<feOffset dy="4"/>
<feGaussianBlur stdDeviation="2"/>
<feComposite in2="hardAlpha" operator="out"/>
<feColorMatrix type="matrix" values="0 0 0 0 0 0 0 0 0 0 0 0 0 0 0 0 0 0 0.25 0"/>
<feBlend mode="normal" in2="BackgroundImageFix" result="effect1_dropShadow_857_116"/>
<feBlend mode="normal" in="SourceGraphic" in2="effect1_dropShadow_857_116" result="shape"/>
</filter>
<filter id="filter1_d_857_116" x="141.06" y="95.8491" width="72.2202" height="72.2201" filterUnits="userSpaceOnUse" color-interpolation-filters="sRGB">
<feFlood flood-opacity="0" result="BackgroundImageFix"/>
<feColorMatrix in="SourceAlpha" type="matrix" values="0 0 0 0 0 0 0 0 0 0 0 0 0 0 0 0 0 0 127 0" result="hardAlpha"/>
<feOffset dy="4"/>
<feGaussianBlur stdDeviation="2"/>
<feComposite in2="hardAlpha" operator="out"/>
<feColorMatrix type="matrix" values="0 0 0 0 0 0 0 0 0 0 0 0 0 0 0 0 0 0 0.25 0"/>
<feBlend mode="normal" in2="BackgroundImageFix" result="effect1_dropShadow_857_116"/>
<feBlend mode="normal" in="SourceGraphic" in2="effect1_dropShadow_857_116" result="shape"/>
</filter>
<linearGradient id="paint0_linear_857_116" x1="340.533" y1="440.981" x2="282.8" y2="151.634" gradientUnits="userSpaceOnUse">
<stop stop-color="#9D9D9D"/>
<stop offset="0.464895" stop-color="#C7C7C7"/>
<stop offset="1" stop-color="white"/>
</linearGradient>
</defs>
</svg>
