<?xml version="1.0" encoding="UTF-8"?>
<svg id="Layer_1" data-name="Layer 1" xmlns="http://www.w3.org/2000/svg" viewBox="0 0 50 50">
  <defs>
    <style>
      .cls-1 {
        fill: #fff;
      }
    </style>
  </defs>
  <path class="cls-1" d="m23.38,10.58c-7.95,0-14.42,6.47-14.42,14.42s6.47,14.42,14.42,14.42,14.42-6.47,14.42-14.42-6.47-14.42-14.42-14.42Zm0,28.27c-7.64,0-13.86-6.22-13.86-13.86s6.22-13.86,13.86-13.86,13.86,6.22,13.86,13.86-6.22,13.86-13.86,13.86Z"/>
  <path class="cls-1" d="m23.38,7.52c-9.64,0-17.48,7.84-17.48,17.48,0,.28.03.55.04.82-.29.14-.5.44-.5.79,0,.41.28.73.65.84,1.2,8.48,8.48,15.03,17.28,15.03,7.63,0,14.12-4.92,16.5-11.76.06.01.12.04.18.04.65,0,1.18-.53,1.18-1.18,0-.49-.3-.91-.73-1.09.23-1.13.35-2.3.35-3.49,0-9.64-7.84-17.48-17.48-17.48Zm0,34.27c-8.46,0-15.45-6.29-16.61-14.43.26-.15.45-.43.45-.75,0-.39-.25-.71-.59-.83-.01-.26-.04-.52-.04-.78,0-9.26,7.53-16.8,16.8-16.8s16.8,7.53,16.8,16.8c0,1.18-.13,2.34-.36,3.45-.53.12-.93.57-.93,1.13,0,.34.15.64.37.85-2.27,6.6-8.52,11.36-15.88,11.36Z"/>
  <path class="cls-1" d="m44.53,13.68c.23-.22.38-.52.38-.86,0-.65-.53-1.18-1.18-1.18-.13,0-.26.04-.38.08C39.05,5.26,31.71,1,23.38,1c-3.95,0-7.83.98-11.29,2.83-.1-.04-.2-.06-.31-.06-.49,0-.89.4-.89.89s.4.89.89.89.89-.4.89-.89c0-.02-.01-.04-.01-.06,3.29-1.73,6.98-2.66,10.73-2.66,8.05,0,15.15,4.15,19.27,10.42-.06.14-.1.3-.1.47,0,.61.48,1.1,1.08,1.16,1.79,3.28,2.81,7.03,2.81,11.02,0,12.72-10.35,23.06-23.06,23.06-2.02,0-4.01-.28-5.95-.79-.07-.8-.73-1.43-1.55-1.43-.86,0-1.56.7-1.56,1.56s.7,1.56,1.56,1.56c.57,0,1.07-.31,1.34-.77,2,.53,4.06.81,6.15.81,13.23,0,24-10.77,24-24,0-4.09-1.03-7.95-2.85-11.32Z"/>
  <path class="cls-1" d="m15.37,44.15c2.47,1.03,5.17,1.61,8.01,1.61,11.45,0,20.76-9.31,20.76-20.76,0-5.42-2.08-10.55-5.84-14.44-3.52-3.63-8.15-5.8-13.15-6.22-.18-.66-.78-1.15-1.5-1.15-.86,0-1.56.7-1.56,1.56s.7,1.56,1.56,1.56c.72,0,1.32-.49,1.5-1.16,10.27.9,18.18,9.4,18.18,19.85,0,11-8.95,19.95-19.95,19.95-2.74,0-5.36-.56-7.74-1.56-.06-.43-.41-.77-.86-.77-.17,0-.32.06-.45.14-6.46-3.31-10.9-10.02-10.9-17.76,0-4.18,1.34-8.26,3.76-11.63.19.08.4.13.61.13.86,0,1.56-.7,1.56-1.56s-.7-1.56-1.56-1.56-1.56.7-1.56,1.56c0,.35.12.67.31.93-2.54,3.52-3.94,7.78-3.94,12.14,0,8.03,4.59,15,11.28,18.45,0,.02-.01.03-.01.05,0,.49.4.89.89.89.23,0,.44-.09.6-.24Z"/>
  <rect class="cls-1" x="14.93" y="20.98" width="1.1" height="8.26"/>
  <polygon class="cls-1" points="23.68 22.01 23.68 20.98 17.76 20.98 17.76 21.96 22.42 21.96 17.29 28.22 17.29 29.24 23.82 29.24 23.82 28.26 18.55 28.26 23.68 22.01"/>
  <path class="cls-1" d="m29.13,26.02h2.18v1.26c-.58.79-1.46,1.18-2.65,1.18-.85,0-1.54-.29-2.06-.88s-.79-1.4-.79-2.46.26-1.88.78-2.46c.52-.58,1.21-.87,2.06-.87.71,0,1.29.15,1.72.45.44.3.68.72.72,1.25h1.13c-.08-.8-.45-1.45-1.11-1.92-.66-.48-1.49-.72-2.48-.72-1.18,0-2.14.39-2.87,1.16-.73.78-1.09,1.81-1.09,3.11s.37,2.33,1.11,3.11c.74.78,1.7,1.17,2.89,1.17s2.08-.34,2.64-1.01l.29.87h.77v-4.22h-3.24v.99Z"/>
</svg>