<?xml version="1.0" encoding="UTF-8"?>
<svg id="Layer_2" data-name="Layer 2" xmlns="http://www.w3.org/2000/svg" viewBox="0 0 55.41 55.41">
  <defs>
    <style>
      .cls-1 {
        fill: #fff;
      }

      .cls-2 {
        fill: #113154;
      }
    </style>
  </defs>
  <g id="Layer_1-2" data-name="Layer 1">
    <circle class="cls-2" cx="27.7" cy="27.7" r="27.7"/>
    <g>
      <rect class="cls-1" x="10.06" y="19.34" width="2.22" height="16.72"/>
      <polygon class="cls-1" points="27.76 21.42 27.76 19.34 15.78 19.34 15.78 21.33 25.22 21.33 14.82 33.99 14.82 36.07 28.05 36.07 28.05 34.08 17.37 34.08 27.76 21.42"/>
      <path class="cls-1" d="m38.79,29.53h4.41v2.54c-1.17,1.59-2.96,2.38-5.37,2.38-1.72,0-3.11-.59-4.18-1.77s-1.6-2.84-1.6-4.98.53-3.81,1.58-4.99c1.05-1.18,2.44-1.77,4.17-1.77,1.45,0,2.61.31,3.49.92.88.61,1.37,1.46,1.46,2.54h2.29c-.16-1.63-.91-2.93-2.24-3.9-1.33-.97-3.01-1.45-5.03-1.45-2.4,0-4.33.79-5.81,2.36-1.48,1.57-2.21,3.67-2.21,6.29s.75,4.71,2.24,6.29c1.49,1.57,3.44,2.36,5.85,2.36s4.22-.68,5.35-2.04l.58,1.76h1.56v-8.53h-6.56v2Z"/>
    </g>
  </g>
</svg>